<svg id="Group_17294" data-name="Group 17294" xmlns="http://www.w3.org/2000/svg" xmlns:xlink="http://www.w3.org/1999/xlink" width="29.481" height="30.183" viewBox="0 0 29.481 30.183">
  <defs>
    <clipPath id="clip-path">
      <rect id="Rectangle_18730" data-name="Rectangle 18730" width="29.481" height="30.183" fill="none"/>
    </clipPath>
  </defs>
  <g id="Group_17221" data-name="Group 17221" clip-path="url(#clip-path)">
    <path id="Path_41511" data-name="Path 41511" d="M11.507,16.783,0,.028A1.278,1.278,0,0,1,.134.012q4.252,0,8.5,0a.228.228,0,0,1,.214.115q1.287,1.883,2.58,3.762Q12.8,5.875,14.167,7.863q1.005,1.463,2.009,2.927c.065.1.133.189.215.305.148-.169.288-.328.426-.488q2.272-2.639,4.543-5.28Q23.432,2.918,25.5.506a.768.768,0,0,0,.1-.111A.792.792,0,0,1,26.438,0c.63.032,1.262.009,1.893.009h.2l-.87,1.015L23.809,5.5l-5.8,6.741c-.123.142-.236.294-.366.428-.085.087-.074.147-.011.239q1.042,1.508,2.077,3.021,1.638,2.387,3.275,4.775,2.114,3.076,4.231,6.15Q28.3,28.429,29.372,30c.033.049.063.1.109.175H29.3q-4.2,0-8.4,0a.33.33,0,0,1-.306-.168q-1.048-1.534-2.1-3.066-1.417-2.065-2.836-4.129-1.441-2.1-2.88-4.2c-.031-.045-.064-.088-.108-.148-.2.224-.385.437-.571.653Q9.605,22.02,7.12,24.916,4.9,27.5,2.671,30.082a.269.269,0,0,1-.175.092c-.8.006-1.606,0-2.408,0A.837.837,0,0,1,0,30.163l11.505-13.38M25.914,28.307c-.032-.054-.046-.083-.064-.108q-2.051-2.938-4.1-5.875-1.777-2.542-3.555-5.083-1.378-1.972-2.754-3.944L10.905,6.812Q9.257,4.454,7.613,2.092a.239.239,0,0,0-.224-.122c-1.229,0-2.458,0-3.687,0-.046,0-.092.007-.15.013a.681.681,0,0,0,.037.076Q6.171,5.753,8.752,9.443q1.8,2.583,3.6,5.17,2.276,3.256,4.557,6.508,2.467,3.527,4.928,7.059a.268.268,0,0,0,.256.13c.725,0,1.45,0,2.176,0h1.642" transform="translate(0 0)" fill="#fff" stroke="rgba(0,0,0,0)" stroke-width="1" opacity="0.63"/>
    <path id="Path_41512" data-name="Path 41512" d="M73.612,54.757H71.97c-.725,0-1.45,0-2.176,0a.268.268,0,0,1-.256-.13q-2.46-3.533-4.928-7.059-2.277-3.255-4.557-6.508-1.805-2.583-3.6-5.17Q53.87,32.2,51.287,28.512a.682.682,0,0,1-.037-.076c.058-.005.1-.013.15-.013,1.229,0,2.458,0,3.687,0a.239.239,0,0,1,.224.122q1.643,2.362,3.293,4.72l4.534,6.484q1.378,1.972,2.754,3.944,1.777,2.542,3.555,5.083,2.052,2.937,4.1,5.875c.018.026.032.054.064.108" transform="translate(-47.698 -26.45)" fill="#182204"/>
  </g>
</svg>
