<svg xmlns="http://www.w3.org/2000/svg" xmlns:xlink="http://www.w3.org/1999/xlink" width="30.202" height="28.433" viewBox="0 0 30.202 28.433">
  <defs>
    <clipPath id="clip-path">
      <rect id="Rectangle_18729" data-name="Rectangle 18729" width="30.202" height="28.433" fill="#fff" stroke="rgba(0,0,0,0)" stroke-width="1"/>
    </clipPath>
  </defs>
  <g id="Group_17293" data-name="Group 17293" opacity="0.63">
    <g id="Group_17219" data-name="Group 17219" clip-path="url(#clip-path)">
      <path id="Path_41510" data-name="Path 41510" d="M23.256,8.328c-.049,1.044-.085,2.089-.156,3.132a.467.467,0,0,0,.4.558,2.473,2.473,0,0,0,1.749-.272,1.458,1.458,0,0,1,1.484.134.652.652,0,0,1,.1,1.139,6.675,6.675,0,0,1-1.311.732c-.47.222-.986.353-1.439.6a1.27,1.27,0,0,0-.645,1.781c1.276,2.82,3.184,4.957,6.352,5.678.155.035.385.155.406.268a.594.594,0,0,1-.18.506,5.415,5.415,0,0,1-1.282.68c-.7.222-1.43.318-2.134.52a.939.939,0,0,0-.531.459,5.123,5.123,0,0,0-.291,1.082.5.5,0,0,1-.636.437c-.745-.085-1.489-.181-2.237-.224a4.568,4.568,0,0,0-3.027.93c-.343.25-.7.479-1.043.731a6.192,6.192,0,0,1-7.44-.015c-.236-.175-.494-.323-.721-.508a5.627,5.627,0,0,0-4.912-1c-1.146.224-1.144.234-1.423-.922-.224-.931-.23-.9-1.165-1.09a17.677,17.677,0,0,1-2.162-.593,2.286,2.286,0,0,1-.846-.557c-.3-.3-.182-.622.241-.7a8.366,8.366,0,0,0,5.371-3.8,11.354,11.354,0,0,0,.954-1.7A1.385,1.385,0,0,0,6,14.251c-.39-.2-.82-.316-1.225-.485A8.4,8.4,0,0,1,3.755,13.3c-.54-.316-.718-.692-.556-1.061a1.261,1.261,0,0,1,1.338-.586c.375.107.737.265,1.115.359a2.7,2.7,0,0,0,.775.068c.6-.029.726-.19.706-.773-.043-1.257-.074-2.514-.118-3.771A7.248,7.248,0,0,1,12.378.419,8.788,8.788,0,0,1,20.467,1.76a6.755,6.755,0,0,1,2.763,5.684c-.005.294,0,.588,0,.883h.026" transform="translate(0 0)" fill="#fff" stroke="rgba(0,0,0,0)" stroke-width="1"/>
    </g>
  </g>
</svg>
